<?xml version="1.0" standalone="no"?>
<!DOCTYPE svg PUBLIC "-//W3C//DTD SVG 20010904//EN"
 "http://www.w3.org/TR/2001/REC-SVG-20010904/DTD/svg10.dtd">
<svg version="1.0" xmlns="http://www.w3.org/2000/svg"
 width="300.000000pt" height="173.000000pt" viewBox="0 0 300.000000 173.000000"
 preserveAspectRatio="xMidYMid meet">
<metadata>
Created by potrace 1.10, written by Peter Selinger 2001-2011
</metadata>
<g transform="translate(0.000000,173.000000) scale(0.100000,-0.100000)"
fill="#000000" stroke="none">
<path d="M2143 1716 c-13 -7 -20 -16 -16 -19 3 -4 -3 -7 -15 -7 -21 0 -70 -56
-58 -67 10 -11 35 18 29 34 -5 12 -2 15 13 11 11 -3 24 0 29 6 6 7 19 22 29
34 21 25 20 25 -11 8z"/>
<path d="M2224 1712 c2 -9 7 -27 11 -39 9 -32 69 -81 112 -92 79 -19 99 -22
83 -11 -8 5 -26 10 -40 10 -24 1 -25 1 -5 16 17 13 18 16 5 25 -37 24 -50 28
-67 22 -14 -6 -11 -9 16 -13 38 -5 52 -26 26 -36 -35 -14 -134 61 -111 84 4 3
10 1 14 -5 4 -6 21 -14 37 -18 27 -6 26 -5 -9 14 -21 11 -43 18 -47 15 -5 -3
-6 2 -3 11 4 9 9 14 13 12 3 -1 38 -18 76 -36 39 -18 81 -38 94 -44 l23 -12
-23 -6 c-18 -4 -12 -7 23 -10 37 -3 53 1 80 20 18 13 24 20 13 16 -11 -4 -30
-10 -42 -12 -23 -5 -131 34 -203 74 -59 33 -83 37 -76 15z"/>
<path d="M112 1698 c-9 -9 -4 -17 20 -35 37 -27 42 -28 34 -8 -3 9 3 19 14 25
11 6 20 15 20 20 0 14 -74 12 -88 -2z"/>
<path d="M2589 1673 c-7 -21 -13 -62 -15 -91 -2 -39 -9 -60 -28 -83 -26 -31
-38 -65 -14 -41 16 16 28 15 28 -2 0 -8 8 -24 19 -37 l19 -23 7 51 c5 40 3 57
-10 77 -13 20 -15 37 -10 78 4 29 12 64 17 77 4 13 7 26 4 28 -2 2 -10 -13
-17 -34z m7 -219 c-8 -29 -26 -22 -26 10 0 29 23 55 28 31 2 -9 1 -28 -2 -41z"/>
<path d="M2687 1650 c4 -24 -1 -54 -10 -79 -13 -31 -15 -59 -10 -120 5 -67 11
-88 37 -128 17 -26 36 -48 42 -50 12 -4 27 60 26 112 0 33 -16 120 -27 148 -6
15 -4 16 20 7 39 -15 72 -12 103 8 15 10 36 23 47 28 24 13 52 60 42 70 -4 4
-13 2 -19 -4 -7 -7 -35 -12 -63 -12 -28 0 -58 -7 -69 -15 -20 -15 -63 -20 -90
-9 -10 4 -16 18 -16 39 0 19 -4 36 -9 39 -5 4 -7 -11 -4 -34z m243 -40 c-8 -6
-27 -10 -42 -10 -14 0 -40 -11 -57 -25 -22 -20 -38 -25 -65 -22 -20 2 -39 7
-43 12 -5 4 -2 5 6 0 10 -6 12 -4 6 4 -5 9 -10 10 -18 2 -7 -7 -6 -16 5 -28
16 -18 22 -41 19 -78 -2 -18 -3 -18 -16 5 -18 31 -19 43 -2 34 8 -5 7 -2 -2
10 -9 11 -17 14 -24 7 -7 -7 -6 -15 3 -26 8 -9 10 -27 6 -48 -4 -24 -3 -28 4
-17 9 12 10 8 8 -15 -1 -16 3 -38 8 -49 10 -17 11 -17 18 0 4 9 2 22 -4 28
-13 13 -13 46 0 46 23 0 31 -41 19 -95 -7 -30 -15 -55 -18 -55 -3 0 -18 24
-33 53 -28 55 -42 159 -28 207 7 21 8 22 10 5 1 -20 1 -20 9 0 5 11 7 23 5 26
-1 3 18 6 44 8 25 1 53 8 61 14 13 11 120 27 131 19 2 -2 -2 -7 -10 -12z m-55
-45 c-51 -31 -68 -31 -32 0 15 14 38 25 50 25 18 0 14 -5 -18 -25z"/>
<path d="M1849 1652 c25 -35 28 -36 65 -22 16 6 26 6 26 0 0 -5 6 -7 13 -4 10
4 14 -5 13 -33 -1 -21 -5 -44 -10 -52 -6 -9 -5 -12 1 -8 6 4 14 -4 17 -17 3
-14 15 -28 27 -31 11 -4 19 -9 16 -11 -2 -2 -18 1 -36 7 -36 13 -54 39 -45 66
5 17 5 17 -6 0 -16 -26 10 -62 55 -77 47 -16 55 -6 23 28 -20 22 -25 37 -25
77 0 32 6 55 17 65 9 8 11 12 5 8 -14 -9 -105 -7 -105 2 0 4 -8 10 -17 13 -10
2 -27 8 -37 13 -18 7 -18 5 3 -24z"/>
<path d="M2135 1637 c4 -40 -10 -42 -25 -3 -6 14 -9 16 -9 5 -1 -8 10 -26 24
-39 23 -22 25 -22 24 -4 -1 10 -5 33 -10 49 -8 28 -8 27 -4 -8z"/>
<path d="M303 1647 c-13 -5 -23 -13 -23 -17 0 -4 -12 -6 -27 -3 -27 3 -27 3
-5 -7 15 -6 30 -7 41 0 10 5 21 7 24 3 4 -3 9 2 13 11 9 23 3 26 -23 13z"/>
<path d="M40 1635 c8 -10 10 -31 7 -62 -5 -34 -4 -40 2 -21 13 38 20 48 34 42
8 -2 11 -22 10 -52 l-1 -47 6 45 c6 36 11 45 27 46 80 4 80 4 65 15 -11 7 -4
8 25 4 34 -5 37 -4 16 5 -18 8 -38 8 -71 -1 -39 -10 -51 -9 -78 5 -18 9 -32
21 -32 26 0 6 -5 10 -11 10 -8 0 -8 -5 1 -15z"/>
<path d="M329 1605 c-14 -7 -30 -25 -37 -39 -11 -25 -11 -26 27 -26 50 0 99
18 111 40 13 24 13 40 -1 40 -5 0 -7 -4 -4 -10 6 -9 -58 -41 -79 -39 -32 4
-36 -5 -6 -11 l35 -7 -32 -2 c-17 0 -34 3 -37 8 -8 13 29 42 66 51 27 7 29 8
8 9 -14 0 -37 -6 -51 -14z"/>
<path d="M1895 1580 c-3 -5 -15 -10 -26 -10 -10 0 -19 -4 -19 -10 0 -11 20
-13 44 -4 9 3 13 11 9 17 -4 6 0 8 11 4 10 -4 15 -3 11 3 -8 13 -22 13 -30 0z"/>
<path d="M2462 1583 c-10 -4 -10 -8 0 -21 8 -10 9 -13 1 -9 -13 8 -136 -107
-140 -132 -1 -8 -10 -21 -19 -28 -16 -12 -17 -13 -1 -13 9 0 17 -5 17 -11 0
-5 -4 -8 -9 -5 -5 4 -7 -3 -4 -14 4 -13 -1 -27 -13 -36 -11 -9 -13 -12 -5 -8
11 5 13 1 9 -20 -6 -32 -1 -34 12 -3 8 20 9 20 9 2 1 -11 -8 -33 -19 -50 -16
-25 -20 -27 -26 -11 -4 9 -2 28 4 41 9 20 8 22 -11 18 -18 -4 -19 -3 -7 6 8 6
10 11 4 11 -6 0 -19 -9 -30 -21 -18 -20 -18 -20 8 -14 23 6 26 4 22 -12 -3
-10 0 -31 6 -47 l10 -28 24 44 c19 35 23 56 20 111 -1 37 1 65 5 63 4 -3 15 9
23 27 20 42 97 129 108 122 5 -3 14 3 19 14 17 31 13 36 -17 24z"/>
<path d="M135 1556 c17 -14 33 -25 37 -26 5 0 21 -19 38 -42 16 -22 30 -36 30
-30 0 6 -4 14 -10 17 -5 3 -10 12 -10 18 1 7 10 1 20 -12 12 -14 20 -18 20
-10 0 11 3 11 11 -1 9 -13 10 -13 6 0 -2 8 -10 14 -16 12 -7 -1 -10 2 -6 8 10
15 42 12 49 -6 8 -22 25 -8 19 16 -5 19 -19 20 -70 5 -6 -2 -13 -1 -15 3 -2 4
-32 22 -68 40 -58 29 -62 30 -35 8z"/>
<path d="M2205 1552 c-16 -11 -36 -26 -44 -35 -7 -10 -20 -17 -27 -17 -26 0
-14 -21 20 -35 40 -17 91 -6 133 29 15 12 37 28 47 33 18 10 17 12 -12 27 -41
21 -80 20 -117 -2z m105 -2 c12 -8 9 -10 -11 -10 -15 0 -32 -7 -39 -15 -7 -8
-16 -13 -20 -10 -4 3 -13 -2 -20 -10 -7 -8 -16 -13 -20 -10 -5 3 -11 1 -15 -5
-8 -12 -35 -13 -35 -1 0 5 21 23 47 40 47 31 86 39 113 21z m-23 -45 c-26 -23
-96 -49 -106 -40 -2 3 10 10 27 16 18 6 29 16 25 22 -3 6 -1 7 5 3 7 -4 22 0
34 8 35 25 46 18 15 -9z"/>
<path d="M745 1502 c-40 -22 -52 -35 -63 -67 -7 -22 -19 -45 -28 -51 -11 -9
-4 -10 33 -6 62 6 102 27 107 55 9 39 12 97 6 97 -3 0 -27 -13 -55 -28z m35
-38 c0 -8 -2 -14 -4 -14 -2 0 -11 -2 -19 -5 -10 -4 -13 1 -11 17 1 13 3 24 3
25 3 9 31 -12 31 -23z m-59 -28 c-8 -10 -4 -12 21 -8 21 3 29 1 24 -7 -8 -12
-52 -15 -59 -3 -3 4 0 18 5 32 6 15 12 20 15 12 3 -7 0 -18 -6 -26z"/>
<path d="M2440 1511 c-6 -13 -9 -25 -6 -29 3 -3 6 0 6 7 0 7 5 9 10 6 7 -4 8
-11 2 -18 -6 -7 -7 -39 -2 -77 l7 -65 3 60 3 60 8 -55 c6 -46 6 -43 3 23 -2
43 -8 85 -13 94 -7 14 -10 13 -21 -6z"/>
<path d="M2951 1507 c-18 -18 -33 -22 -84 -22 l-63 0 14 -27 c7 -15 17 -30 22
-33 5 -3 7 -20 4 -38 -3 -25 -2 -28 5 -12 8 17 10 16 10 -12 1 -24 -5 -35 -21
-44 -19 -9 -21 -9 -10 2 6 7 12 18 12 24 -1 5 -9 -1 -20 -14 -11 -12 -17 -27
-14 -32 9 -15 64 30 64 52 0 10 4 19 10 19 5 0 7 -6 4 -13 -3 -8 5 -25 16 -38
17 -18 20 -20 16 -6 -3 10 -6 23 -6 28 0 6 -4 7 -10 4 -14 -9 -13 8 2 23 9 9
8 12 -4 12 -9 0 -26 13 -38 30 l-21 30 33 -5 33 -5 -32 10 c-18 6 -35 15 -38
20 -7 11 28 14 39 3 11 -12 37 -12 29 0 -4 7 0 8 11 4 10 -4 15 -3 11 3 -3 6
-2 10 4 10 6 0 20 10 31 23 l22 22 -4 -25 c-2 -14 -17 -34 -37 -47 -19 -13
-28 -23 -21 -23 20 0 70 51 70 71 0 28 -15 30 -39 6z"/>
<path d="M20 1478 c-27 -84 -20 -97 28 -50 15 15 20 20 10 13 -27 -21 -51 -23
-44 -4 3 8 6 18 6 21 0 4 5 0 10 -8 8 -11 9 -7 5 15 -3 17 -2 24 1 17 8 -18
24 -4 23 21 0 13 -3 16 -6 8 -4 -9 -7 -10 -13 -2 -4 7 -12 -6 -20 -31z"/>
<path d="M116 1494 c-15 -39 -5 -71 32 -107 21 -20 41 -37 44 -37 4 0 5 20 4
45 -3 31 -12 54 -32 79 -33 40 -39 42 -48 20z m69 -88 c1 -44 -6 -45 -39 -5
-25 29 -34 68 -19 83 15 14 56 -42 58 -78z"/>
<path d="M327 1463 c-4 -3 1 -12 10 -18 15 -11 15 -18 5 -52 -18 -61 -15 -97
11 -121 13 -12 28 -22 34 -22 7 0 19 -7 27 -16 15 -14 16 -10 16 46 0 58 -2
64 -35 94 -19 18 -35 39 -35 47 -1 19 -25 50 -33 42z m83 -133 c0 -14 -6 -12
-24 6 -10 9 -16 11 -16 4 0 -6 7 -18 15 -26 8 -9 15 -22 15 -30 0 -21 -21 -17
-27 6 -3 11 -9 17 -14 14 -5 -3 -9 6 -9 20 0 13 6 26 13 29 15 5 47 -10 47
-23z"/>
<path d="M2421 1410 c0 -36 4 -74 8 -85 5 -11 6 12 4 55 -6 98 -11 112 -12 30z"/>
<path d="M272 1403 c-10 -36 -15 -44 -22 -33 -8 12 -10 9 -10 -10 l1 -25 24
28 c15 16 25 40 25 58 0 16 -1 29 -3 29 -2 0 -9 -21 -15 -47z"/>
<path d="M1800 1432 c-30 -15 -35 -23 -38 -57 -2 -22 -9 -46 -15 -54 -10 -12
-7 -13 18 -7 65 16 97 39 115 82 10 23 24 44 32 47 7 3 -7 6 -32 6 -25 1 -61
-7 -80 -17z m53 -19 c3 -5 0 -19 -5 -33 -6 -15 -12 -20 -15 -12 -3 7 0 18 6
26 8 10 4 12 -21 8 -21 -3 -29 -1 -24 7 8 12 52 15 59 4z"/>
<path d="M2970 1425 c-7 -8 -28 -15 -47 -15 -19 0 -32 -4 -29 -9 10 -16 65 -6
81 15 16 19 16 19 13 -1 -2 -11 -19 -28 -38 -38 -24 -12 -27 -16 -10 -11 34 9
60 33 60 56 0 22 -13 23 -30 3z"/>
<path d="M2265 1413 c-28 -10 -59 -13 -104 -8 l-65 6 19 -22 c43 -46 120 -65
163 -39 13 8 11 9 -13 4 -16 -3 -34 -7 -40 -8 -5 -2 -19 0 -30 5 -16 6 -13 8
15 10 29 1 26 3 -19 9 -29 5 -58 13 -65 20 -8 9 -2 10 27 5 46 -9 118 1 143
20 23 17 21 17 -31 -2z"/>
<path d="M110 1375 c-2 -5 -3 -21 -4 -35 -1 -15 -10 -29 -26 -37 -16 -8 -19
-13 -9 -13 26 0 51 35 46 67 -2 15 -5 24 -7 18z"/>
<path d="M2584 1292 c-1 -74 -1 -76 11 -40 9 24 11 49 5 73 -12 55 -15 50 -16
-33z"/>
<path d="M85 1341 c-3 -6 -18 -11 -33 -11 -27 0 -70 -20 -44 -20 6 0 12 -5 12
-11 0 -5 -3 -8 -7 -6 -5 3 -8 -10 -9 -28 0 -19 3 -32 8 -29 4 3 8 16 8 30 0
13 3 23 8 23 21 -4 24 3 6 16 -18 13 -17 14 18 15 34 0 57 14 45 26 -3 3 -8 1
-12 -5z"/>
<path d="M1010 1315 c0 -8 9 -15 20 -15 11 0 20 7 20 15 0 8 -9 15 -20 15 -11
0 -20 -7 -20 -15z"/>
<path d="M2461 1320 c-1 -9 6 -26 15 -39 16 -22 16 -23 -4 -12 -11 6 -23 16
-25 23 -4 9 -6 9 -6 1 -1 -11 57 -59 63 -52 1 2 -4 24 -10 49 -7 25 -13 36
-14 25 -1 -20 -1 -20 -10 0 -6 14 -9 15 -9 5z"/>
<path d="M2356 1266 c-4 -29 -4 -66 0 -82 7 -33 51 -84 71 -84 19 0 16 13 -8
28 -14 9 -19 20 -16 33 3 10 1 17 -4 13 -12 -7 -11 3 2 28 6 11 7 18 1 14 -5
-3 -9 11 -9 34 0 22 3 40 6 40 17 0 34 -51 34 -100 l-1 -55 10 44 c7 31 6 51
-3 72 -11 28 -53 69 -69 69 -4 0 -11 -24 -14 -54z m26 -30 c-2 -37 1 -74 8
-88 11 -21 11 -22 -4 -8 -21 20 -31 97 -17 133 6 15 12 27 13 27 2 0 2 -29 0
-64z"/>
<path d="M2610 1276 c0 -2 7 -17 15 -32 19 -36 19 -55 0 -80 -14 -19 -14 -19
-15 3 0 12 -4 25 -10 28 -12 8 -13 3 0 -29 8 -21 4 -30 -19 -55 -16 -17 -34
-31 -40 -31 -14 0 -14 35 0 62 9 17 13 18 20 7 8 -12 11 -12 19 1 13 20 13 33
-1 24 -8 -4 -9 1 -4 17 5 19 3 18 -13 -7 -11 -18 -25 -35 -31 -38 -6 -4 -11
-27 -11 -51 l0 -44 36 24 c40 27 94 100 94 128 0 18 -27 77 -35 77 -3 0 -5 -2
-5 -4z"/>
<path d="M2770 1222 c0 -4 -16 -6 -35 -4 -19 2 -43 1 -52 -2 -15 -6 -15 -8 -3
-16 8 -6 20 -10 25 -10 6 0 3 5 -5 10 -11 7 -4 10 25 10 29 0 36 -3 25 -10
-22 -14 -6 -12 24 3 14 8 23 17 19 20 -9 10 -23 9 -23 -1z"/>
<path d="M2850 1181 c-7 -17 -15 -29 -19 -28 -3 1 -28 -5 -54 -12 -37 -11 -53
-11 -74 -2 -37 17 -41 5 -9 -24 23 -22 36 -25 74 -23 43 3 48 6 69 43 21 36
23 38 24 15 0 -14 3 -19 6 -12 3 9 12 7 30 -8 14 -11 31 -20 37 -20 6 0 -3 9
-20 19 -34 20 -49 39 -41 47 3 3 14 -3 24 -13 14 -14 30 -19 58 -16 47 3 60
13 17 13 -38 0 -83 16 -98 36 -10 12 -13 9 -24 -15z m-30 -60 c-8 -16 -20 -21
-50 -21 -44 0 -70 8 -70 22 0 5 7 5 17 -1 11 -6 24 -6 36 1 15 8 18 7 11 -4
-4 -8 0 -7 12 3 19 17 46 29 52 23 2 -1 -1 -12 -8 -23z"/>
<path d="M1530 1110 c-6 -10 -16 -17 -23 -14 -16 6 -45 -16 -47 -36 -7 -50 2
-53 26 -10 14 25 23 36 19 25 -4 -17 -2 -16 15 5 20 24 19 22 -2 -22 -12 -27
-25 -43 -29 -37 -3 6 -9 -1 -13 -15 -6 -23 -9 -25 -28 -15 -14 8 -17 13 -9 18
17 11 2 40 -23 46 -31 6 -106 1 -106 -7 0 -5 3 -8 8 -8 4 0 18 -16 31 -35 18
-26 31 -35 52 -35 16 0 29 5 29 12 0 6 11 1 25 -12 l25 -23 0 26 c0 22 5 27
25 27 30 0 47 29 44 73 -2 18 0 38 5 45 4 6 3 12 -3 12 -6 0 -15 -9 -21 -20z
m-121 -79 c13 -8 25 -41 15 -41 -2 0 -17 9 -35 19 -20 12 -26 21 -17 24 19 8
22 8 37 -2z"/>
<path d="M2245 1114 c-69 -14 -95 -39 -95 -89 0 -18 -3 -40 -6 -49 -6 -14 -3
-14 32 0 51 21 81 49 94 90 7 19 19 38 28 43 28 16 10 18 -53 5z m-3 -54 c-3
-27 -9 -36 -18 -28 -3 4 -1 16 5 27 10 17 9 20 -4 15 -8 -3 -13 -10 -10 -14 3
-5 1 -11 -4 -15 -6 -3 -9 -11 -7 -18 1 -7 1 -8 -2 -4 -2 4 -10 3 -18 -4 -11
-9 -14 -8 -14 5 0 9 7 19 16 23 12 5 13 7 3 14 -10 6 -7 11 11 18 34 13 45 8
42 -19z"/>
<path d="M2861 1111 c-11 -7 -11 -9 0 -13 22 -7 -17 -58 -44 -57 -22 0 -22 0
-1 9 12 4 24 17 28 27 6 17 5 17 -8 1 -7 -10 -18 -18 -23 -18 -6 0 -16 -7 -23
-15 -11 -13 -8 -15 15 -15 16 0 37 7 47 17 17 15 18 15 18 -10 0 -14 5 -29 10
-32 13 -8 13 6 0 39 -11 29 -3 33 26 11 20 -15 80 -20 88 -7 2 4 -11 6 -30 4
-27 -3 -41 1 -60 19 -13 12 -24 27 -24 32 0 6 12 0 26 -14 27 -25 64 -32 81
-14 7 7 -2 10 -28 10 -21 0 -46 8 -56 18 -22 20 -23 20 -42 8z"/>
<path d="M2660 1072 c0 -4 -19 -8 -42 -9 -53 -3 -79 -28 -88 -87 -8 -51 -7
-51 41 -35 40 14 79 46 79 66 0 8 11 25 24 38 19 19 21 25 9 29 -19 8 -23 7
-23 -2z m-35 -57 c-1 -14 -4 -27 -6 -28 -48 -27 -51 -28 -43 -16 5 9 2 10 -9
6 -11 -4 -17 -1 -17 7 0 8 7 17 16 20 28 11 37 7 23 -11 -13 -16 -12 -17 4 -4
25 20 21 31 -10 31 -22 0 -25 2 -13 10 8 5 25 10 37 10 17 0 21 -5 18 -25z"/>
<path d="M1570 986 c0 -13 -3 -31 -6 -40 -4 -12 0 -16 15 -16 12 0 21 6 21 15
0 9 7 18 15 21 22 9 18 19 -10 32 -34 16 -35 16 -35 -12z"/>
<path d="M250 991 c-58 -9 -89 -26 -94 -54 -9 -39 -12 -97 -6 -97 3 0 27 13
55 28 40 22 52 35 63 67 7 22 20 46 29 53 9 6 13 11 7 11 -5 -1 -29 -5 -54 -8z
m-6 -40 c9 -14 -2 -34 -31 -55 -14 -11 -23 -13 -18 -6 6 10 4 12 -8 7 -11 -4
-17 -1 -17 8 0 8 2 15 4 15 2 0 12 3 20 6 12 5 15 2 10 -12 -4 -14 0 -12 14 6
12 14 18 27 16 30 -3 2 -8 0 -12 -5 -4 -6 -17 -10 -29 -11 -18 0 -20 2 -12 13
13 15 55 18 63 4z"/>
<path d="M1370 906 c0 -14 17 -16 126 -16 89 0 125 3 122 11 -3 8 -47 13 -126
16 -107 5 -122 3 -122 -11z"/>
<path d="M1278 903 c-16 -2 -28 -9 -28 -14 0 -6 -6 -7 -12 -4 -7 4 -3 -2 9
-12 33 -26 187 -108 179 -94 -6 9 0 10 20 5 19 -5 25 -4 20 5 -4 6 -12 11 -18
11 -6 0 -27 17 -47 38 -36 37 -82 73 -91 70 -3 0 -17 -3 -32 -5z m67 -65 c41
-23 73 -44 70 -46 -4 -4 -97 46 -140 75 -40 27 -2 12 70 -29z"/>
<path d="M1649 888 c-18 -11 -48 -36 -65 -54 -17 -19 -36 -34 -42 -34 -7 0
-12 -7 -12 -15 0 -12 4 -13 19 -5 25 13 34 13 25 -1 -7 -13 7 -5 119 58 42 25
77 47 77 49 0 3 -3 3 -7 1 -5 -2 -45 -26 -91 -52 -46 -26 -85 -45 -88 -42 -3
3 34 26 81 52 48 26 85 48 83 49 -2 2 -17 6 -34 9 -21 4 -41 0 -65 -15z"/>
<path d="M1390 872 c0 -5 13 -21 30 -35 50 -45 141 -31 171 24 9 18 4 19 -96
19 -58 0 -105 -4 -105 -8z m135 -32 c-3 -5 -17 -10 -30 -10 -13 0 -27 5 -30
10 -4 6 8 10 30 10 22 0 34 -4 30 -10z"/>
<path d="M2830 845 c-10 -12 -9 -16 5 -21 19 -8 40 9 31 25 -10 15 -21 14 -36
-4z"/>
<path d="M1482 773 c2 -10 10 -18 18 -18 8 0 16 8 18 18 2 12 -3 17 -18 17
-15 0 -20 -5 -18 -17z"/>
<path d="M1361 731 c-59 -39 -132 -131 -105 -131 4 0 18 12 31 26 14 15 30 23
39 20 8 -3 12 -1 9 4 -8 12 72 53 87 44 7 -4 8 -3 4 4 -3 6 2 16 13 21 25 14
34 14 25 0 -4 -8 0 -8 15 0 16 9 26 9 42 0 15 -8 19 -8 15 0 -11 17 0 13 59
-20 31 -18 52 -35 48 -41 -3 -7 -1 -8 5 -4 11 6 72 -19 72 -30 0 -2 -9 0 -20
6 -11 6 -20 8 -20 6 0 -6 55 -36 65 -36 28 0 -52 96 -110 132 -47 29 -49 30
-82 14 -40 -19 -47 -20 -37 -4 4 7 3 8 -4 4 -6 -4 -21 -2 -33 5 -17 9 -20 8
-14 -2 6 -9 3 -10 -11 -5 -40 17 -50 16 -93 -13z"/>
<path d="M1784 86 c-8 -21 3 -36 27 -36 15 0 20 6 17 22 -4 27 -35 37 -44 14z"/>
</g>
</svg>
