<?xml version="1.0" standalone="no"?>
<!DOCTYPE svg PUBLIC "-//W3C//DTD SVG 20010904//EN"
 "http://www.w3.org/TR/2001/REC-SVG-20010904/DTD/svg10.dtd">
<svg version="1.0" xmlns="http://www.w3.org/2000/svg"
 width="300.000000pt" height="206.000000pt" viewBox="0 0 300.000000 206.000000"
 preserveAspectRatio="xMidYMid meet">
<metadata>
Created by potrace 1.10, written by Peter Selinger 2001-2011
</metadata>
<g transform="translate(0.000000,206.000000) scale(0.100000,-0.100000)"
fill="#000000" stroke="none">
<path d="M1994 1556 c-40 -18 -64 -52 -64 -91 0 -25 -18 -46 -113 -134 -61
-58 -147 -137 -189 -178 l-78 -73 133 1 132 0 110 134 c81 99 116 135 132 135
13 0 37 13 55 29 28 25 33 36 33 75 0 38 -5 51 -30 75 -37 35 -80 45 -121 27z
m96 -46 c36 -36 19 -120 -24 -120 -22 0 -55 -27 -128 -106 -14 -16 -31 -33
-37 -39 -6 -5 -29 -34 -51 -63 -23 -29 -47 -51 -55 -50 -8 2 -20 -4 -27 -13
-10 -12 -26 -14 -65 -11 -58 4 -65 14 -30 46 97 88 116 106 111 106 -4 0 -1 6
6 14 6 8 18 12 26 9 8 -3 14 -1 14 3 0 5 29 39 65 76 46 48 65 75 65 93 0 61
87 98 130 55z"/>
<path d="M964 1353 c33 -189 102 -273 223 -273 l48 0 -35 27 c-19 15 -51 44
-71 65 -24 26 -47 39 -69 42 -43 5 -60 29 -60 84 l0 44 33 -7 c49 -10 149 -64
174 -94 27 -31 28 -38 8 -57 -8 -9 -15 -11 -15 -5 0 6 -8 11 -17 11 -9 0 -36
21 -60 46 -59 61 -64 51 -8 -13 47 -54 142 -129 151 -120 11 11 -27 132 -51
163 -18 23 -47 41 -102 63 -43 16 -95 37 -117 46 l-38 16 6 -38z m117 -183 c6
0 24 -13 42 -30 18 -16 26 -30 20 -30 -7 0 -13 5 -13 10 0 6 -6 10 -14 10 -26
0 -70 45 -60 61 7 11 9 11 12 -3 2 -10 8 -18 13 -18z"/>
<path d="M1260 1333 c-20 -48 -21 -59 -10 -77 8 -12 19 -43 26 -71 l12 -50 1
44 c1 25 -4 60 -11 78 -10 28 -10 36 3 49 14 14 18 13 33 -11 11 -17 14 -30 8
-38 -5 -7 -12 -43 -15 -80 l-5 -68 24 22 c48 45 47 121 -2 205 -14 24 -29 46
-33 49 -4 2 -18 -21 -31 -52z"/>
<path d="M855 1000 c11 -93 2 -86 133 -93 197 -10 304 -53 447 -177 l80 -70
55 54 c95 94 277 173 439 192 66 7 62 2 76 104 l7 45 -622 0 -621 0 6 -55z
m540 0 l-6 -25 19 24 c18 23 24 23 176 25 l157 2 -6 -30 -6 -31 16 28 16 27
138 0 c125 0 139 -2 143 -18 7 -27 -9 -63 -26 -56 -8 3 -17 1 -21 -5 -3 -6
-18 -11 -32 -11 -33 0 -155 -35 -210 -61 -51 -23 -54 -23 -47 -4 4 8 3 15 0
15 -4 0 -11 -11 -16 -25 -5 -14 -17 -25 -25 -25 -9 0 -13 5 -10 10 4 6 11 8
16 5 5 -4 9 -1 9 4 0 14 -1 14 -38 -5 -33 -16 -44 -28 -17 -18 8 4 15 1 15 -5
0 -6 -4 -11 -8 -11 -4 0 -28 -20 -52 -43 -54 -53 -82 -62 -100 -34 -10 17 -10
23 6 34 21 16 15 17 -22 3 -22 -9 -30 -7 -46 10 -10 11 -30 27 -43 36 -14 9
-25 26 -25 38 -1 18 -2 18 -10 5 -8 -14 -17 -12 -73 15 -80 39 -156 55 -277
59 l-94 3 -8 34 c-14 64 -23 62 257 58 l256 -3 -6 -25z"/>
<path d="M1960 870 c-112 -24 -171 -45 -254 -88 -63 -33 -166 -121 -166 -141
0 -5 37 -34 81 -65 l82 -55 36 15 c117 49 224 147 284 261 36 70 44 94 30 92
-5 0 -46 -9 -93 -19z m30 -51 c0 -21 -44 -85 -57 -82 -6 1 -18 -15 -27 -35
-18 -38 -85 -91 -157 -123 -35 -16 -39 -16 -71 1 -18 11 -40 22 -49 25 -9 4
-22 18 -28 31 -10 23 -8 28 21 52 69 59 179 111 308 145 31 9 60 2 60 -14z"/>
<path d="M880 874 c0 -20 77 -147 115 -191 75 -86 200 -158 309 -179 l38 -7
-63 64 c-62 62 -65 64 -85 47 -22 -19 -54 -24 -54 -9 0 5 -8 12 -18 15 -16 6
-121 102 -149 138 -6 9 -20 34 -31 56 l-20 41 37 6 c20 3 57 1 81 -5 25 -7 56
-12 70 -11 34 1 190 -59 190 -73 0 -6 14 -17 32 -24 30 -11 31 -13 14 -25 -16
-12 -16 -13 7 -12 16 0 55 -27 122 -85 l97 -85 -50 -3 c-60 -4 -157 27 -217
68 -62 43 -65 69 -10 83 19 5 19 5 -1 6 -11 0 -31 -11 -45 -25 l-24 -26 52
-48 c74 -68 143 -93 258 -93 50 0 101 3 113 7 20 7 17 11 -35 46 -32 22 -107
82 -168 135 -125 108 -213 157 -323 180 -72 15 -242 21 -242 9z"/>
</g>
</svg>
